<?xml version="1.0" encoding="UTF-8" standalone="no"?>
<svg
   width="800px"
   height="800px"
   viewBox="0 0 1024 1024"
   class="icon"
   version="1.1"
   id="svg1039"
   sodipodi:docname="api.svg"
   inkscape:version="1.3.2 (091e20ef0f, 2023-11-25, custom)"
   xmlns:inkscape="http://www.inkscape.org/namespaces/inkscape"
   xmlns:sodipodi="http://sodipodi.sourceforge.net/DTD/sodipodi-0.dtd"
   xmlns="http://www.w3.org/2000/svg"
   xmlns:svg="http://www.w3.org/2000/svg"
   xmlns:rdf="http://www.w3.org/1999/02/22-rdf-syntax-ns#"
   xmlns:cc="http://creativecommons.org/ns#"
   xmlns:dc="http://purl.org/dc/elements/1.1/">
  <metadata
     id="metadata1045">
    <rdf:RDF>
      <cc:Work
         rdf:about="">
        <dc:format>image/svg+xml</dc:format>
        <dc:type
           rdf:resource="http://purl.org/dc/dcmitype/StillImage" />
      </cc:Work>
    </rdf:RDF>
  </metadata>
  <defs
     id="defs1043" />
  <sodipodi:namedview
     pagecolor="#ffffff"
     bordercolor="#666666"
     borderopacity="1"
     objecttolerance="10"
     gridtolerance="10"
     guidetolerance="10"
     inkscape:pageopacity="0"
     inkscape:pageshadow="2"
     inkscape:window-width="1916"
     inkscape:window-height="1154"
     id="namedview1041"
     showgrid="false"
     inkscape:zoom="1"
     inkscape:cx="399.5"
     inkscape:cy="400"
     inkscape:window-x="0"
     inkscape:window-y="0"
     inkscape:window-maximized="0"
     inkscape:current-layer="svg1039"
     inkscape:showpageshadow="2"
     inkscape:pagecheckerboard="0"
     inkscape:deskcolor="#d1d1d1" />
  <path
     d="M432.4 453.5l-17 46.7h34.4z"
     fill="#FFFFFF"
     id="path1027" />
  <path
     d="M 725.3,259.7 H 312.2 c -16.5,0 -30,13.5 -30,30 v 413.1 c 0,16.5 13.5,30 30,30 h 413.1 c 16.5,0 30,-13.5 30,-30 V 289.7 c 0,-16.6 -13.5,-30 -30,-30 z M 648.4,697.5 H 352.6 c -19.4,0 -35.1,-15.7 -35.1,-35.1 v -295 c 0,-5.5 4.5,-10 10,-10 5.5,0 10,4.5 10,10 v 295 c 0,8.3 6.8,15.1 15.1,15.1 h 295.8 c 5.5,0 10,4.5 10,10 0,5.5 -4.4,10 -10,10 z"
     fill="#FFFFFF"
     id="path1029"
     style="fill:#d7d7d7;fill-opacity:1"
     sodipodi:nodetypes="ssssssssssssssssssss" />
  <path
     d="M648.4 677.5H352.6c-8.3 0-15.1-6.8-15.1-15.1v-295c0-5.5-4.5-10-10-10s-10 4.5-10 10v295c0 19.4 15.7 35.1 35.1 35.1h295.8c5.5 0 10-4.5 10-10s-4.4-10-10-10z"
     fill="#06F3FF"
     id="path1033" />
  <path
     d="M865 386.5c11 0 20-9 20-20s-9-20-20-20h-69.7v-56.8c0-38.6-31.4-70-70-70h-27.8v-67.3c0-11-9-20-20-20s-20 9-20 20v67.3H611v-67.3c0-11-9-20-20-20s-20 9-20 20v67.3h-46.5v-67.3c0-11-9-20-20-20s-20 9-20 20v67.3H438v-67.3c0-11-9-20-20-20s-20 9-20 20v67.3h-85.8c-38.6 0-70 31.4-70 70v56.8h-69.7c-11 0-20 9-20 20s9 20 20 20h69.7V433h-69.7c-11 0-20 9-20 20s9 20 20 20h69.7v46.5h-69.7c-11 0-20 9-20 20s9 20 20 20h69.7V606h-69.7c-11 0-20 9-20 20s9 20 20 20h69.7v56.8c0 38.6 31.4 70 70 70H343v72.5c0 11 9 20 20 20s20-9 20-20v-72.5h46.5v72.5c0 11 9 20 20 20s20-9 20-20v-72.5H516v72.5c0 11 9 20 20 20s20-9 20-20v-72.5h46.5v72.5c0 11 9 20 20 20s20-9 20-20v-72.5h82.8c38.6 0 70-31.4 70-70V646H865c11 0 20-9 20-20s-9-20-20-20h-69.7v-46.5H865c11 0 20-9 20-20s-9-20-20-20h-69.7V473H865c11 0 20-9 20-20s-9-20-20-20h-69.7v-46.5H865zM755.3 702.7c0 16.5-13.5 30-30 30H312.2c-16.5 0-30-13.5-30-30v-413c0-16.5 13.5-30 30-30h413.1c16.5 0 30 13.5 30 30v413z"
     fill="#005BFF"
     id="path1035"
     style="fill:#66cdaa;fill-opacity:1" />
</svg>
